<?xml version="1.0" standalone="no"?>
<!DOCTYPE svg PUBLIC "-//W3C//DTD SVG 20010904//EN"
 "http://www.w3.org/TR/2001/REC-SVG-20010904/DTD/svg10.dtd">
<svg version="1.0" xmlns="http://www.w3.org/2000/svg"
 width="1200.000000pt" height="1743.000000pt" viewBox="0 0 1200.000000 1743.000000"
 preserveAspectRatio="xMidYMid meet">

<g transform="translate(0.000000,1743.000000) scale(0.100000,-0.100000)"
fill="#000000" stroke="none">
<path d="M393 17416 c-186 -45 -348 -214 -383 -401 -8 -44 -10 -2229 -8 -8335
l3 -8275 23 -59 c64 -170 208 -295 381 -332 99 -21 11083 -21 11182 0 174 37
316 161 381 332 l23 59 3 8275 c2 6106 0 8291 -8 8335 -37 192 -206 364 -398
404 -82 17 -11128 14 -11199 -3z m11228 -42 c148 -43 274 -168 320 -315 19
-59 19 -243 19 -8345 l0 -8285 -21 -62 c-52 -155 -175 -271 -334 -313 -74 -20
-11136 -20 -11210 0 -158 42 -283 159 -334 313 l-21 62 0 8284 c0 7532 1 8288
16 8338 43 146 167 273 312 320 55 17 253 18 5628 18 5056 1 5575 0 5625 -15z"/>
<path d="M1458 16889 c-95 -27 -178 -151 -220 -331 -20 -82 -22 -121 -22 -333
0 -210 2 -251 21 -331 53 -227 148 -338 284 -338 205 2 323 285 306 739 -9
246 -57 423 -142 523 -53 63 -148 93 -227 71z m110 -119 c65 -61 84 -165 90
-483 4 -275 -5 -403 -37 -507 -44 -142 -138 -162 -189 -41 -42 95 -55 216 -56
481 0 245 8 335 41 453 28 102 97 147 151 97z"/>
<path d="M830 16820 l0 -50 46 0 45 0 -3 -687 c-4 -723 -5 -740 -48 -763 -39
-21 -64 12 -76 100 -6 44 -9 50 -30 50 -24 0 -24 -1 -24 -102 l0 -103 35 -24
c76 -52 183 -34 230 38 58 88 59 97 63 824 l3 667 35 0 34 0 0 50 0 50 -155 0
-155 0 0 -50z"/>
<path d="M1900 16821 l0 -50 38 -3 37 -3 0 -540 0 -540 -37 -3 -38 -3 0 -50 0
-49 150 0 150 0 0 49 0 50 -37 3 -38 3 -3 255 c-1 154 1 251 7 245 5 -6 63
-143 129 -305 l121 -295 100 -3 101 -3 0 51 c0 48 -1 50 -29 50 -28 0 -30 5
-171 344 l-142 344 104 198 103 199 38 3 37 3 0 50 0 49 -105 0 -105 0 0 -50
c0 -49 1 -50 30 -50 l31 0 -112 -217 c-62 -120 -118 -225 -126 -233 -11 -12
-13 20 -11 215 l3 230 38 3 37 3 0 50 0 49 -150 0 -150 0 0 -49z"/>
<path d="M2590 16821 l0 -50 38 -3 37 -3 0 -540 0 -540 -37 -3 -38 -3 0 -50 0
-49 265 0 265 0 0 150 0 150 -30 0 -30 0 0 -90 0 -90 -125 0 -125 0 0 260 0
260 75 0 75 0 0 -80 0 -80 30 0 30 0 0 220 0 220 -30 0 -30 0 0 -80 0 -80 -75
0 -75 0 0 205 0 205 125 0 125 0 0 -90 c0 -89 0 -90 25 -90 l25 0 0 150 0 150
-260 0 -260 0 0 -49z"/>
<path d="M3200 16820 l0 -50 35 0 35 0 0 -545 0 -545 -35 0 -35 0 0 -50 0 -50
145 0 145 0 0 50 0 50 -35 0 -35 0 0 240 c0 201 2 240 14 240 28 0 47 -13 62
-42 12 -24 134 -505 134 -530 0 -5 43 -8 95 -8 l95 0 0 50 c0 46 -2 50 -24 50
-14 0 -27 4 -30 8 -3 4 -27 104 -55 221 -48 204 -73 270 -108 290 -14 7 -11
11 15 25 80 41 115 134 115 301 0 134 -20 219 -66 279 -46 60 -73 66 -281 66
l-186 0 0 -50z m319 -76 c43 -36 61 -104 61 -229 0 -173 -38 -255 -120 -255
l-40 0 0 255 0 255 34 0 c22 0 45 -9 65 -26z"/>
<path d="M6664 14766 c-28 -24 -29 -27 -26 -107 3 -125 -30 -158 -186 -183
-95 -15 -108 -20 -169 -62 -34 -23 -43 -24 -105 -18 -88 9 -110 -5 -149 -94
-83 -188 -99 -204 -196 -210 -137 -9 -179 21 -268 189 -69 129 -161 234 -255
287 -78 43 -220 89 -318 101 -180 23 -357 -30 -478 -141 -59 -54 -88 -99 -142
-225 -58 -131 -99 -193 -148 -223 -30 -19 -45 -22 -102 -17 -72 5 -160 34
-214 70 -46 31 -68 80 -68 150 0 32 -6 72 -14 91 -29 68 -113 106 -195 86 -87
-21 -131 -80 -131 -176 0 -83 30 -141 90 -172 40 -20 54 -22 120 -16 l76 6 64
-41 c178 -112 188 -116 275 -116 135 0 180 35 324 248 98 145 139 188 210 221
40 18 64 21 186 20 123 0 151 -4 230 -27 144 -44 302 -126 374 -194 45 -43 61
-66 61 -85 0 -50 -46 -58 -185 -33 -157 28 -307 10 -443 -55 -145 -69 -219
-163 -262 -331 -47 -181 -83 -220 -240 -255 -118 -27 -160 -7 -199 94 -39 106
-77 135 -172 135 -107 0 -189 -77 -189 -179 0 -48 40 -136 71 -158 32 -22 102
-20 205 5 77 20 94 21 167 10 45 -6 116 -11 158 -11 65 0 85 5 138 31 73 36
118 89 183 210 55 105 103 158 170 191 130 64 346 92 416 54 40 -21 66 -74 53
-108 -13 -32 -52 -67 -257 -230 -472 -373 -691 -554 -834 -686 -163 -151 -280
-237 -339 -248 -28 -6 -48 0 -115 36 -93 49 -123 49 -152 1 -16 -27 -21 -29
-74 -28 -39 1 -65 -4 -84 -16 -33 -22 -66 -74 -66 -104 0 -18 -7 -23 -37 -28
-93 -15 -188 -63 -267 -136 -85 -78 -100 -130 -75 -264 16 -86 -3 -124 -105
-223 -104 -100 -227 -197 -493 -391 -315 -228 -423 -336 -423 -421 0 -51 23
-80 66 -80 72 0 177 71 504 340 84 69 191 152 239 186 48 33 113 82 145 107
60 50 93 58 118 30 23 -26 92 -169 113 -232 23 -71 16 -110 -39 -220 -69 -136
-279 -743 -335 -966 -11 -44 -40 -204 -65 -355 -72 -434 -94 -498 -248 -734
-185 -281 -332 -690 -395 -1096 -13 -85 -18 -176 -18 -346 l0 -230 27 -42 c16
-23 28 -49 28 -59 0 -9 -20 -36 -45 -59 -50 -45 -54 -65 -30 -134 19 -54 19
-114 0 -265 -29 -232 -15 -375 45 -473 51 -82 181 -81 356 3 127 61 204 136
204 198 0 34 -70 173 -123 242 -45 60 -71 84 -212 196 -81 64 -95 91 -95 185
0 39 5 55 20 69 19 17 26 18 78 6 90 -20 292 -25 475 -12 322 23 560 68 827
158 192 64 293 109 335 149 27 26 28 29 10 33 -37 7 -161 -22 -343 -80 -101
-32 -219 -65 -264 -74 -86 -16 -224 -20 -232 -7 -3 5 42 55 100 113 104 103
306 344 477 568 67 89 107 155 168 281 92 188 121 236 160 255 14 8 80 19 145
24 218 18 405 90 510 195 52 53 66 74 99 160 44 113 82 159 147 177 114 30
210 -38 225 -159 9 -82 -40 -167 -122 -210 -16 -8 -72 -19 -123 -23 -115 -10
-152 -29 -243 -126 -107 -115 -201 -297 -251 -487 -23 -90 -30 -228 -11 -247
18 -18 96 -23 170 -9 101 18 384 114 498 169 189 91 251 153 270 271 22 135
119 233 230 233 136 0 224 -127 167 -239 -45 -87 -89 -118 -211 -144 -51 -11
-108 -29 -125 -39 -99 -62 -187 -275 -266 -648 -43 -202 -39 -303 13 -319 52
-16 211 34 412 130 144 70 248 140 373 253 45 41 82 73 82 70 0 -2 -40 -87
-89 -188 -136 -282 -347 -758 -407 -916 -87 -236 -124 -289 -197 -287 -48 1
-91 21 -231 107 -106 65 -197 106 -234 107 -32 0 -82 -52 -82 -85 0 -66 64
-148 213 -272 43 -36 77 -67 75 -68 -2 -2 -109 8 -238 22 -152 17 -299 26
-415 27 -166 1 -184 -1 -227 -21 -72 -33 -90 -99 -36 -132 31 -20 209 -56 403
-82 195 -26 196 -27 170 -42 -13 -7 -71 -11 -165 -10 -256 4 -382 -23 -415
-86 -27 -52 23 -105 115 -121 30 -6 173 -13 318 -17 290 -7 332 -19 146 -41
-119 -14 -298 -49 -425 -83 -125 -34 -170 -87 -117 -136 74 -67 152 -66 563 7
94 16 181 29 195 29 23 0 22 -3 -21 -42 -26 -23 -93 -67 -149 -97 -157 -84
-265 -193 -231 -234 21 -25 122 -20 206 8 39 14 71 23 73 21 5 -5 -39 -110
-130 -304 -104 -223 -118 -261 -118 -307 0 -27 4 -34 19 -34 36 0 59 33 111
166 18 44 38 86 46 95 8 8 14 23 14 32 0 29 61 209 90 267 33 64 86 140 99
140 10 0 -164 -406 -184 -430 -11 -13 -35 -103 -35 -130 0 -21 28 -8 63 28 20
21 52 68 71 106 31 62 35 66 38 40 4 -38 39 -45 60 -12 15 24 139 293 158 343
6 15 13 26 16 23 2 -3 -16 -70 -41 -149 -25 -79 -44 -148 -42 -153 5 -16 87
65 109 108 12 23 41 94 64 159 46 123 68 172 83 181 5 3 -21 -73 -56 -170 -36
-96 -62 -178 -59 -181 6 -7 56 24 74 46 24 30 69 126 92 194 35 106 36 70 1
-46 -42 -142 -40 -151 19 -101 34 29 68 90 95 174 26 77 29 49 7 -48 -17 -70
-17 -82 -5 -82 28 0 80 65 103 128 12 34 25 62 27 62 2 0 1 -20 -2 -44 -12
-77 34 -70 82 11 15 26 36 56 45 65 10 10 18 23 18 30 0 6 3 8 6 5 4 -4 -1
-18 -10 -31 -22 -34 -22 -96 0 -96 27 0 81 66 99 120 23 68 36 63 28 -10 -4
-38 -2 -60 4 -60 24 0 63 43 79 88 10 26 26 58 36 71 10 13 18 31 19 40 0 11
2 12 6 3 3 -7 -2 -23 -11 -37 -8 -13 -18 -42 -22 -64 -6 -38 -5 -41 15 -41 32
0 74 46 96 105 11 27 27 57 37 67 10 10 18 23 18 30 0 6 3 8 6 5 4 -4 -1 -18
-10 -33 -20 -30 -34 -134 -19 -134 22 0 62 42 77 81 21 53 56 99 56 75 0 -9
-4 -16 -10 -16 -5 0 -10 -20 -10 -44 0 -39 2 -44 20 -39 31 8 68 51 86 101 22
60 39 79 31 35 -7 -36 0 -63 15 -63 6 0 31 17 57 39 55 46 102 61 194 61 l67
0 0 -407 c0 -437 9 -617 41 -837 27 -186 88 -420 139 -536 39 -87 43 -104 49
-207 6 -99 10 -115 30 -137 13 -14 37 -28 53 -31 l29 -7 -7 -81 c-8 -113 10
-286 41 -384 31 -99 96 -201 145 -226 56 -29 146 -17 248 33 192 95 252 226
176 389 -31 68 -158 196 -274 277 -113 79 -167 133 -175 178 -11 58 15 89 145
168 173 104 290 197 445 352 510 510 918 1392 1005 2171 15 134 13 684 -3 714
-16 31 -31 36 -51 16 -13 -14 -16 -41 -16 -153 0 -263 -65 -705 -152 -1032
-68 -259 -140 -434 -291 -713 -47 -88 -100 -195 -119 -240 -18 -44 -34 -73
-36 -65 -2 8 11 69 27 134 74 296 105 487 121 753 16 265 -7 592 -61 862 -49
248 -202 587 -274 605 -35 9 -112 -17 -353 -118 -119 -49 -224 -93 -232 -96
-8 -3 35 35 95 85 134 109 251 233 285 299 38 75 34 147 -15 249 -39 81 -54
158 -41 209 10 39 66 97 115 119 53 23 94 17 149 -22 98 -72 107 -131 40 -273
-40 -86 -43 -99 -41 -168 2 -102 47 -239 134 -410 102 -200 165 -274 232 -274
61 0 84 27 167 198 111 227 133 297 134 421 l1 100 -53 98 c-28 53 -52 109
-52 123 0 40 25 77 68 102 55 31 86 28 128 -11 51 -47 54 -88 15 -210 -17 -54
-31 -118 -31 -142 0 -128 111 -287 312 -448 143 -114 333 -193 384 -159 6 4
16 17 23 29 17 33 -10 103 -155 412 -205 433 -302 677 -359 899 -32 130 -42
196 -60 412 -30 358 -85 508 -245 670 -80 82 -152 135 -267 194 -40 21 -88 54
-109 74 l-36 35 8 61 c4 34 8 151 8 261 1 265 13 297 132 366 29 16 90 60 136
98 120 96 165 116 258 116 57 -1 85 -6 115 -22 124 -66 234 -207 263 -340 l9
-41 -54 -7 c-135 -17 -225 -73 -259 -160 -21 -57 -15 -152 14 -218 27 -61 102
-140 157 -166 98 -46 221 -17 302 72 46 50 59 91 49 159 -3 24 -8 81 -12 128
l-6 85 45 68 c86 129 113 266 83 418 -10 46 -45 154 -78 239 -76 195 -95 282
-80 365 17 91 80 207 179 329 48 59 123 151 165 204 161 198 234 417 245 728
10 287 -35 479 -152 654 -106 159 -108 167 -74 252 49 123 -16 298 -135 361
-57 30 -162 30 -227 0 -60 -27 -119 -86 -148 -148 -67 -143 -17 -294 121 -364
59 -30 76 -34 148 -34 l81 -1 -7 -50 c-24 -181 -142 -331 -327 -420 -107 -51
-194 -75 -310 -83 -106 -7 -186 7 -357 62 -302 99 -355 99 -690 10 -254 -68
-272 -69 -335 -13 -76 66 -93 145 -69 320 9 68 18 125 20 127 2 2 35 -13 74
-33 141 -74 258 -68 344 18 100 99 109 291 19 396 -69 80 -179 109 -287 75
-78 -25 -130 -74 -175 -165 -40 -84 -59 -97 -213 -153 -98 -36 -163 -87 -220
-174 -84 -127 -128 -285 -128 -457 0 -158 32 -280 106 -409 24 -43 47 -91 50
-107 9 -41 -38 -136 -142 -292 -105 -157 -131 -213 -155 -336 -22 -110 -46
-187 -66 -219 -8 -12 -39 -40 -70 -63 -76 -58 -96 -105 -91 -215 l3 -83 -85
-4 c-103 -4 -177 -35 -239 -98 -47 -49 -77 -131 -66 -181 l7 -31 -73 50 c-154
103 -237 132 -383 132 -190 0 -339 -47 -726 -230 -426 -201 -550 -233 -796
-206 -92 10 -139 -5 -150 -48 -9 -37 2 -59 61 -126 30 -33 55 -68 55 -77 0
-49 -251 55 -375 155 -47 37 -61 56 -69 87 -12 50 4 307 46 745 22 227 32 391
33 545 2 121 3 225 4 232 0 6 27 45 59 85 77 98 86 113 128 215 63 155 83 180
224 289 120 93 151 120 184 166 25 34 27 41 21 105 -5 50 -3 72 7 84 7 9 58
46 113 84 129 88 332 244 413 317 75 68 108 75 141 30 32 -46 44 -114 38 -215
-11 -170 -71 -299 -154 -334 -31 -12 -39 -11 -109 17 -83 33 -122 37 -162 16
-130 -68 -137 -270 -12 -333 132 -67 291 21 277 154 l-4 42 63 31 c133 65 186
177 225 469 11 86 27 184 34 218 25 109 165 312 239 347 31 15 40 15 64 4 52
-25 61 -92 37 -298 -13 -116 -12 -140 6 -320 27 -256 22 -370 -20 -500 -58
-177 -83 -202 -220 -218 -95 -12 -124 -28 -158 -88 -28 -48 -31 -139 -7 -190
32 -66 118 -92 215 -63 70 21 98 55 113 136 7 39 23 86 34 105 12 18 73 82
136 141 97 91 121 119 151 180 80 162 84 297 19 632 -28 143 -35 318 -14 370
34 88 102 100 139 26 29 -56 99 -273 131 -405 43 -174 61 -313 61 -471 0 -190
-30 -327 -102 -452 -35 -61 -67 -85 -148 -110 -71 -23 -107 -60 -121 -126 -20
-90 18 -180 95 -225 58 -33 157 -28 209 11 70 54 94 137 69 240 -20 82 -14 99
73 197 96 109 152 260 176 475 8 79 9 134 0 218 -21 212 -55 294 -194 478
-127 167 -163 225 -189 303 -26 79 -21 134 20 198 36 57 93 86 251 128 123 34
189 66 280 139 183 147 236 316 175 557 l-25 99 22 62 23 62 -21 28 c-29 38
-73 42 -110 9z m-243 -397 c72 -72 -75 -320 -237 -400 -55 -27 -71 -31 -124
-27 -77 6 -110 33 -110 91 0 45 39 120 70 137 17 9 20 6 26 -25 8 -43 33 -60
59 -41 18 13 18 16 -8 75 -33 75 -34 110 -5 146 21 27 24 27 92 21 62 -5 77
-3 121 18 63 31 89 32 116 5z m-316 -249 c-13 -20 -33 -9 -39 21 -11 58 -6 64
19 26 14 -20 23 -42 20 -47z m-2028 -520 c58 -35 79 -110 48 -170 -21 -40 -63
-60 -126 -60 -46 0 -55 4 -90 39 -35 35 -39 44 -39 88 0 54 24 97 64 113 38
16 109 11 143 -10z m-268 -1076 c39 -33 62 -109 62 -205 0 -106 -33 -146 -79
-96 -39 42 -65 117 -70 203 -4 73 -2 84 17 103 27 27 33 26 70 -5z m-200 -58
c38 -41 63 -138 68 -273 5 -113 4 -123 -12 -123 -27 0 -83 68 -106 129 -43
115 -48 216 -13 269 19 28 35 28 63 -2z m670 -8 c-27 -53 -54 -80 -142 -146
-51 -38 -107 -86 -126 -107 -18 -21 -67 -107 -107 -192 -81 -167 -118 -215
-202 -257 -61 -31 -112 -73 -112 -92 0 -8 14 -23 32 -32 56 -30 68 -48 68
-101 0 -62 -30 -107 -95 -143 -67 -37 -167 -68 -221 -68 -37 0 -47 5 -70 34
-15 19 -43 76 -61 128 -19 51 -41 112 -49 135 -14 38 -14 45 1 77 9 19 41 58
71 86 59 56 53 54 152 34 47 -9 77 15 102 85 27 72 48 93 123 121 56 21 87 54
87 93 0 10 16 16 49 20 77 9 107 30 241 168 95 97 138 134 180 153 30 14 63
26 73 26 15 0 16 -3 6 -22z m550 -16 c118 -87 78 -242 -63 -244 -119 -2 -200
148 -124 229 42 45 136 53 187 15z m-1420 -111 c34 -34 81 -224 81 -325 0 -62
-18 -100 -49 -104 -54 -8 -98 82 -122 251 -14 93 -7 149 22 178 24 24 44 24
68 0z m-198 -121 c10 -6 29 -30 40 -53 18 -35 23 -65 27 -179 3 -76 2 -138 -2
-138 -19 0 -58 37 -85 78 -63 100 -77 228 -30 278 26 28 24 27 50 14z m4988
-169 c66 -25 109 -64 117 -106 3 -17 -2 -59 -10 -92 -22 -84 -20 -115 7 -141
33 -31 72 -43 177 -53 168 -16 228 -68 238 -208 6 -83 -14 -164 -67 -268 -129
-257 -359 -480 -641 -623 -418 -211 -808 -178 -940 80 -66 130 -64 390 5 597
69 204 313 583 376 583 24 0 44 -27 79 -112 17 -42 45 -97 61 -122 29 -44 109
-106 136 -106 23 0 14 -13 -59 -88 -82 -83 -79 -85 58 -33 134 52 235 139 265
228 31 96 -18 243 -111 326 -44 40 -103 67 -116 55 -4 -5 17 -47 89 -172 50
-86 72 -162 58 -199 -11 -28 -66 -77 -87 -77 -10 0 -14 14 -14 58 0 162 -73
275 -192 296 -21 4 -38 11 -38 16 0 6 17 29 38 52 42 47 147 100 232 117 30 6
64 13 75 15 49 12 212 -3 264 -23z m-2122 -181 c43 -26 67 -74 67 -135 0 -60
-21 -97 -69 -119 -77 -37 -157 -10 -194 66 -25 52 -26 86 -7 133 29 69 133 98
203 55z m1591 -44 l24 -13 -30 -12 c-32 -13 -66 -46 -74 -71 -3 -9 -11 3 -18
27 -12 39 -11 45 5 63 21 23 59 25 93 6z m118 -208 c16 -116 -24 -130 -110
-38 -31 34 -60 70 -66 80 -9 18 -7 20 16 20 30 0 94 58 95 87 1 31 58 -100 65
-149z m-3527 -1849 c62 -45 119 -63 164 -54 18 4 71 20 118 36 103 34 138 36
196 8 86 -41 105 -106 58 -198 -46 -92 -103 -121 -240 -121 -107 -1 -151 -21
-207 -96 -61 -81 -125 -150 -133 -142 -4 4 8 98 27 211 l34 203 -46 75 c-25
41 -57 91 -70 112 l-23 39 34 -17 c19 -10 58 -35 88 -56z m-1264 -804 c33 -32
32 -77 0 -135 -110 -194 -217 -479 -311 -833 -50 -188 -68 -227 -124 -265 -38
-25 -68 -26 -83 0 -27 42 59 427 168 755 91 272 188 473 240 493 40 17 85 11
110 -15z m3400 -794 c63 -28 95 -73 95 -132 0 -93 -58 -164 -184 -228 -73 -37
-138 -50 -161 -31 -23 19 -48 117 -48 190 -1 48 5 76 21 107 50 97 177 140
277 94z m864 -235 c49 -26 74 -62 79 -116 9 -99 -34 -164 -163 -245 -106 -66
-110 -73 -368 -670 -222 -514 -393 -868 -383 -794 7 58 48 153 219 504 253
521 365 780 375 862 3 30 -4 69 -23 130 -36 115 -36 177 -1 237 58 99 174 139
265 92z m-1182 -537 c-97 -240 -491 -1137 -508 -1154 -16 -16 -10 28 15 111
62 206 225 600 381 919 89 181 194 369 202 361 2 -2 -38 -109 -90 -237z m17
-190 c-136 -396 -266 -711 -348 -843 -41 -65 -95 -128 -85 -99 17 48 495 1149
497 1143 1 -3 -27 -94 -64 -201z m975 69 c-81 -206 -139 -341 -329 -755 -221
-480 -252 -531 -162 -258 22 68 89 215 173 382 75 149 160 331 189 405 68 170
147 328 164 328 3 0 -13 -46 -35 -102z m-202 -5 c-3 -5 -122 -267 -265 -583
-308 -682 -293 -650 -305 -650 -5 0 -7 20 -3 48 4 30 43 121 111 257 57 116
149 311 206 435 149 329 236 500 255 500 3 0 3 -3 1 -7z m-687 -117 c0 -27
-389 -895 -413 -921 -16 -18 4 77 30 145 14 36 43 97 64 135 56 103 200 413
249 538 25 63 48 107 56 107 8 0 14 -2 14 -4z m905 -143 c-21 -63 -89 -214
-164 -363 -71 -140 -145 -295 -166 -344 -36 -89 -82 -165 -99 -166 -4 0 -6 6
-3 13 41 100 307 688 373 827 98 202 120 215 59 33z m40 -91 c-9 -31 -74 -176
-145 -322 -118 -244 -180 -396 -180 -440 0 -10 -7 -20 -15 -24 -39 -15 -3 109
81 276 69 138 191 424 235 551 33 93 34 95 37 57 2 -23 -4 -66 -13 -98z m-964
-71 c-27 -81 -277 -586 -315 -636 -15 -20 -15 -20 -16 1 -1 77 169 469 292
674 54 90 63 101 66 78 2 -14 -10 -67 -27 -117z m310 -217 c-208 -474 -270
-607 -287 -624 -14 -13 -14 -12 -6 10 25 65 354 792 413 912 12 26 24 46 26
44 2 -2 -63 -156 -146 -342z m744 246 c3 -5 -1 -20 -9 -32 -7 -13 -78 -163
-156 -335 -78 -172 -149 -320 -157 -330 -38 -48 27 170 98 324 50 108 201 383
211 383 4 0 10 -4 13 -10z m-960 -19 c-7 -23 -263 -570 -293 -626 -41 -78 -21
-23 72 192 188 436 196 453 217 453 6 0 8 -9 4 -19z m203 -28 c-29 -110 -75
-215 -212 -486 -83 -164 -152 -294 -154 -289 -6 19 357 812 372 812 3 0 0 -17
-6 -37z m-184 -165 c-36 -79 -108 -238 -161 -355 -91 -203 -97 -212 -117 -201
-16 9 -17 13 -6 15 9 2 64 110 130 255 105 230 205 428 215 428 2 0 -25 -64
-61 -142z m1315 -89 c36 -105 -21 -205 -139 -244 -28 -9 -53 -15 -56 -13 -2 3
5 34 16 71 27 87 121 213 162 216 3 1 11 -13 17 -30z m-2359 -292 c193 -94
197 -96 400 -142 113 -26 228 -57 256 -70 58 -26 294 -181 294 -194 0 -4 -6
-21 -14 -37 -8 -16 -22 -69 -32 -117 -20 -104 -37 -126 -135 -173 -83 -41
-136 -55 -356 -99 -276 -54 -306 -67 -596 -244 -132 -81 -233 -127 -298 -137
l-44 -7 35 38 c23 24 79 58 169 101 73 36 145 74 159 84 73 58 97 145 47 168
-41 19 -106 14 -335 -24 -228 -37 -444 -54 -475 -37 -17 10 -17 11 4 18 12 4
182 42 377 84 195 43 358 81 362 85 10 10 -19 56 -51 80 -26 19 -41 20 -310
20 -270 1 -386 11 -427 36 -21 13 -12 18 76 41 67 18 119 22 349 28 236 5 274
8 298 24 38 25 35 52 -9 75 -11 6 -94 29 -185 52 -175 43 -349 70 -455 70 -51
0 -64 3 -64 16 0 8 16 22 36 30 51 21 272 13 518 -21 288 -38 383 -31 406 30
16 42 -11 78 -118 154 -106 75 -141 109 -166 158 -33 67 -40 69 284 -90z
m2091 -756 l24 -19 3 -419 c2 -401 3 -423 27 -540 31 -152 31 -186 1 -265 -49
-129 -94 -229 -102 -230 -23 -3 -45 75 -54 188 -25 310 -30 512 -22 859 7 313
10 364 26 393 14 28 42 49 67 51 4 1 17 -8 30 -18z m-1320 -138 c-12 -20 -14
-14 -5 12 4 9 9 14 11 11 3 -2 0 -13 -6 -23z m-21 -58 c0 -8 -4 -15 -10 -15
-5 0 -7 7 -4 15 4 8 8 15 10 15 2 0 4 -7 4 -15z m-445 -42 c-4 -10 -12 -31
-17 -48 -12 -35 -28 -55 -28 -36 0 36 24 101 37 101 10 0 13 -5 8 -17z m181
-70 c-8 -15 -15 -25 -16 -21 0 12 23 58 27 54 3 -2 -2 -17 -11 -33z m-110 -10
c-8 -15 -15 -25 -16 -21 0 12 23 58 27 54 3 -2 -2 -17 -11 -33z m-357 -102
c-6 -18 -14 -30 -17 -27 -2 3 1 19 8 36 16 40 23 33 9 -9z m-146 -87 c-10 -22
-23 -43 -29 -49 -6 -5 -17 -25 -24 -43 -7 -18 -14 -31 -16 -29 -6 6 19 77 28
77 4 0 18 20 30 45 26 54 36 53 11 -1z"/>
<path d="M6247 14274 c-4 -4 5 -29 20 -56 l26 -48 24 22 c25 23 30 57 11 76
-13 13 -70 17 -81 6z"/>
<path d="M8176 11381 c-4 -5 38 -33 91 -61 54 -29 134 -79 177 -111 44 -32 82
-57 84 -54 3 2 -1 25 -8 50 -19 67 -87 139 -156 164 -57 22 -178 29 -188 12z"/>
<path d="M7263 11331 c-47 -22 -88 -77 -97 -131 -12 -73 8 -65 80 32 39 51 74
99 78 106 10 17 -12 15 -61 -7z"/>
<path d="M8075 11275 c-14 -13 -25 -29 -25 -35 0 -5 -16 -10 -35 -10 -29 0
-35 -4 -35 -22 0 -62 84 -164 183 -222 55 -33 172 -75 206 -76 l24 0 -6 93
c-3 50 -13 113 -22 139 -41 116 -224 200 -290 133z m116 -16 c19 -10 17 -13
-25 -50 -29 -26 -50 -54 -57 -80 -15 -48 -24 -49 -39 -4 -16 47 -5 89 32 120
32 27 58 31 89 14z m144 -167 c8 -25 15 -66 15 -90 l0 -45 -41 7 c-43 7 -117
42 -158 74 l-24 19 36 12 c45 15 97 73 97 109 l1 27 29 -34 c16 -19 36 -55 45
-79z"/>
<path d="M7298 11213 c-36 -38 -52 -108 -45 -197 12 -166 83 -234 267 -257 75
-9 260 1 314 17 14 5 16 3 10 -7 -4 -8 -25 -41 -46 -74 -43 -68 -35 -79 32
-45 98 50 106 160 25 353 -13 32 -18 37 -30 27 -21 -17 -18 -77 5 -129 11 -24
18 -46 15 -49 -11 -12 -103 35 -176 90 -85 64 -159 141 -219 229 -22 31 -46
59 -55 63 -36 13 -72 6 -97 -21z m246 -233 c85 -96 131 -156 123 -158 -8 -2
-44 4 -81 12 -208 49 -309 183 -239 320 l15 29 23 -24 c13 -13 84 -94 159
-179z"/>
<path d="M7640 11219 c0 -37 34 -79 84 -104 65 -32 90 -33 80 -2 -13 42 -35
65 -93 96 -70 37 -71 37 -71 10z"/>
<path d="M4028 7293 c-10 -27 -62 -124 -118 -218 -113 -190 -141 -255 -148
-337 -6 -83 4 -124 44 -168 96 -106 294 -88 374 34 l25 39 8 -79 c9 -89 -4
-208 -29 -256 -9 -17 -28 -42 -42 -56 -15 -14 -20 -23 -12 -20 8 3 105 31 215
63 217 62 248 74 199 75 -69 0 -169 101 -238 237 -14 29 -26 54 -26 56 0 3 18
-4 40 -15 47 -24 142 -26 193 -4 47 19 111 79 131 120 37 78 8 183 -71 257
-58 55 -114 89 -279 172 -82 41 -171 91 -197 111 -26 20 -48 36 -50 36 -1 0
-10 -21 -19 -47z"/>
<path d="M3320 5701 c-93 -19 -172 -88 -210 -187 -19 -48 -23 -78 -23 -159 0
-115 10 -161 88 -410 31 -99 64 -219 73 -267 l17 -87 58 39 c32 21 145 75 250
120 231 100 332 156 409 232 79 76 113 149 113 243 -1 150 -103 256 -249 256
-34 0 -75 -5 -91 -11 -47 -18 -103 -60 -125 -94 l-19 -31 6 66 c16 180 -130
322 -297 290z"/>
<path d="M4160 4192 c0 -121 -166 -431 -296 -553 l-49 -45 59 -12 c128 -24
348 -163 479 -301 l67 -71 0 43 c0 118 143 389 280 529 l55 56 -52 11 c-141
28 -405 199 -509 331 l-34 43 0 -31z"/>
<path d="M5932 4077 c-114 -42 -162 -151 -131 -295 5 -27 9 -78 7 -113 l-3
-64 -28 70 c-49 120 -127 179 -238 178 -92 -1 -158 -45 -198 -133 -36 -79 -23
-161 37 -230 65 -77 137 -98 255 -75 91 17 107 18 107 6 0 -18 -134 -153 -177
-178 -25 -15 -68 -28 -99 -32 l-54 -6 123 -67 c67 -38 156 -87 197 -109 46
-26 68 -34 58 -23 -61 69 -63 218 -5 356 l15 33 41 -90 c46 -99 77 -137 133
-166 117 -60 248 -15 304 105 61 132 -1 268 -143 313 -45 14 -62 15 -116 5
-88 -16 -94 -16 -73 7 9 10 49 33 89 50 121 54 138 64 164 98 56 73 66 150 29
229 -51 109 -187 169 -294 131z"/>
<path d="M11010 2238 c-19 -13 -45 -39 -57 -57 -56 -83 -62 -168 -63 -868 l0
-613 -35 0 -35 0 0 -50 0 -50 155 0 155 0 0 50 0 50 -46 0 -45 0 3 683 c4 759
4 759 64 765 36 4 52 -23 61 -100 5 -42 9 -48 29 -48 24 0 24 1 24 103 l0 102
-36 24 c-52 36 -128 40 -174 9z"/>
<path d="M10352 1893 c-55 -27 -118 -107 -151 -191 -40 -105 -61 -221 -68
-387 -16 -390 82 -684 246 -733 78 -24 144 -8 208 51 56 52 98 133 131 256 25
91 26 109 26 351 1 231 -1 263 -21 342 -42 164 -104 268 -184 309 -48 24 -141
25 -187 2z m147 -112 c30 -32 55 -103 73 -211 16 -99 16 -550 0 -650 -28 -172
-65 -240 -128 -240 -100 0 -144 172 -144 565 0 316 24 466 85 531 41 43 77 45
114 5z"/>
<path d="M8140 1835 c0 -54 1 -55 29 -55 33 0 25 21 87 -245 39 -170 64 -237
97 -260 11 -8 19 -16 16 -18 -2 -2 -21 -14 -41 -26 -120 -72 -140 -426 -33
-566 44 -59 71 -65 284 -65 l191 0 0 50 0 50 -40 0 -40 0 2 543 3 542 38 3 37
3 0 50 0 49 -150 0 -150 0 0 -50 0 -50 35 0 35 0 0 -240 c0 -201 -2 -240 -14
-240 -28 0 -47 13 -62 41 -11 22 -134 511 -134 534 0 3 -43 5 -95 5 l-95 0 0
-55z m400 -880 l0 -255 -30 0 c-86 0 -123 64 -128 221 -5 140 10 213 53 256
25 25 42 33 69 33 l36 0 0 -255z"/>
<path d="M8840 1740 l0 -150 30 0 30 0 0 90 0 90 125 0 125 0 0 -260 0 -260
-75 0 -75 0 0 80 0 80 -30 0 -30 0 0 -220 0 -220 30 0 30 0 0 80 0 80 75 0 75
0 -2 -207 -3 -208 -117 -3 -118 -3 0 96 0 95 -30 0 -30 0 0 -150 0 -150 260 0
260 0 0 50 0 50 -35 0 -35 0 0 540 0 540 35 0 35 0 0 55 0 55 -265 0 -265 0 0
-150z"/>
<path d="M9382 1838 c3 -50 5 -53 33 -58 28 -5 34 -17 167 -335 75 -182 136
-337 135 -345 -1 -8 -47 -102 -102 -207 l-100 -193 -37 0 -38 0 0 -50 0 -50
105 0 105 0 0 49 c0 47 -1 50 -28 53 l-28 3 115 222 c64 122 119 225 124 229
4 4 7 -97 7 -224 l0 -232 -40 0 -40 0 0 -50 0 -50 150 0 150 0 0 50 0 50 -35
0 -35 0 0 539 0 540 33 3 c31 3 32 4 35 56 l3 52 -151 0 -151 0 3 -52 3 -53
38 -3 37 -3 0 -256 c0 -141 -2 -254 -4 -252 -2 2 -61 141 -129 309 l-125 305
-102 3 -101 3 3 -53z"/>
</g>
</svg>
